<svg width="270" height="291" viewBox="0 0 270 291" fill="none" xmlns="http://www.w3.org/2000/svg">
<g clip-path="url(#clip0_1877_349)">
<rect width="270" height="291" fill="white"/>
<path d="M77 178H65.5122C53.0873 178 38 166.666 38 152.611C38 134.476 38 105.461 38 90.5" stroke="#734774" stroke-width="12"/>
<path d="M193 178H204.488C216.913 178 232 166.666 232 152.611C232 134.476 232 102.461 232 87.5" stroke="#734774" stroke-width="12"/>
<path fill-rule="evenodd" clip-rule="evenodd" d="M153.896 77.0831L199.074 122.468L211.873 109.61L166.695 64.2253C149.494 46.9457 121.606 46.9457 104.405 64.2253L59.9747 108.858L72.7741 121.716L117.204 77.0831C127.336 66.9048 143.763 66.9048 153.896 77.0831Z" fill="#A753AA"/>
<path fill-rule="evenodd" clip-rule="evenodd" d="M175.65 53.4836C152.493 30.3348 114.948 30.3348 91.7914 53.4836L47.1336 98.1257L34.3418 85.3385L78.9997 40.6963C109.221 10.4853 158.22 10.4853 188.442 40.6963L234.658 86.8964L221.866 99.6837L175.65 53.4836Z" fill="#FFEE69"/>
<path fill-rule="evenodd" clip-rule="evenodd" d="M166.695 65.2368C149.601 48.0747 121.887 48.0747 104.794 65.2368L60.4425 109.766L47.6329 96.9048L91.984 52.376C116.152 28.111 155.336 28.111 179.505 52.376L224.215 97.2657L211.406 110.127L166.695 65.2368Z" fill="#7094EE"/>
<path fill-rule="evenodd" clip-rule="evenodd" d="M185.215 39.3969C156.819 11.0347 110.779 11.0347 82.3827 39.3969L34.8319 86.8905L22 74.074L69.5508 26.5804C105.034 -8.86014 162.564 -8.86014 198.047 26.5804L247 75.4747L234.168 88.2911L185.215 39.3969Z" fill="#E46060"/>
<path fill-rule="evenodd" clip-rule="evenodd" d="M177.188 258.049C176.016 259.486 175.984 261.539 177.112 263.011L184 272C185.918 274.754 186.076 281.268 186.254 286.32C186.327 288.401 188.04 289.999 190.123 289.999H195.358C197.643 289.999 199.468 288.088 199.339 285.807C198.893 277.915 198.116 269.287 196 265.488C194.42 262.651 189.992 257.152 186.949 253.49C185.36 251.577 182.435 251.617 180.863 253.544L177.188 258.049Z" fill="#734774"/>
<path fill-rule="evenodd" clip-rule="evenodd" d="M91.3584 258.154C92.5365 259.592 92.568 261.653 91.4343 263.127L84.5573 272.067C82.6406 274.809 82.4811 281.291 82.3037 286.322C82.2304 288.403 80.5174 290 78.4357 290H73.1986C70.9135 290 69.0878 288.089 69.2174 285.807C69.6638 277.948 70.4414 269.362 72.5561 265.58C74.1375 262.751 78.5693 257.268 81.6129 253.62C83.202 251.715 86.1176 251.754 87.6894 253.673L91.3584 258.154Z" fill="#734774"/>
<path fill-rule="evenodd" clip-rule="evenodd" d="M73.9197 233.366C72.6754 232.101 70.6299 232.05 69.3756 233.304L48.7533 253.926C42.406 260.273 38.8687 276.036 38.1412 286.235C37.985 288.425 39.7718 290.198 41.9678 290.198H47.0327C49.2642 290.198 51.0835 288.37 51.2729 286.146C51.8712 279.124 53.9209 268.096 57.4221 264.595L77.8011 244.216C79.2131 242.804 79.3674 240.567 78.1627 238.974L73.9197 233.366V233.366Z" fill="#734774"/>
<path fill-rule="evenodd" clip-rule="evenodd" d="M194.344 233.358C195.589 232.097 197.632 232.045 198.887 233.296L219.508 253.85C225.852 260.173 229.388 275.872 230.118 286.037C230.275 288.228 228.488 290 226.292 290H221.229C218.997 290 217.178 288.172 216.987 285.948C216.388 278.949 214.339 267.97 210.84 264.483L190.475 244.184C189.058 242.771 188.903 240.527 190.113 238.933L194.344 233.358V233.358Z" fill="#734774"/>
<path d="M199.406 185.043L200.762 186.398C208.371 194.401 211.525 201.604 211.58 207.889C211.572 214.578 208.061 222.298 199.411 230.917L157.142 273.032L157.135 273.039C148.334 281.839 140.437 285.398 133.743 285.398C127.078 285.398 119.354 281.836 110.74 273.129L110.734 273.123L110.728 273.117L68.7828 230.959C68.7791 230.955 68.7754 230.951 68.7716 230.948C60.0476 222.08 56.608 214.608 56.6143 207.938C56.6205 201.269 60.0742 193.794 68.8304 184.926L83.1519 170.59L83.1585 170.584L83.165 170.577L110.392 143.154L110.679 142.931L110.943 142.668L111.465 142.148C119.836 133.904 127.203 130.534 133.809 130.534C140.397 130.534 148.097 134.049 156.867 142.56L199.406 185.043Z" fill="#F38989" stroke="#734774" stroke-width="12"/>
<path d="M147.729 215.876L171.428 208.31L165.593 192.844L153.849 198.074L144.569 202.129C145.672 200.256 146.241 198.119 146.217 195.947L146.353 171.074L146.279 171L129.79 171.828L131.103 184.611L132.342 196.973C130.837 194.687 128.581 192.996 125.961 192.189L102.324 184.351L98 200.361L110.5 203.043L122.381 205.639C119.797 206.386 117.546 207.991 116.001 210.189L101.295 230.253L115.109 239.315L121.563 228.263L127.758 217.631C127.654 220.359 128.485 223.04 130.112 225.234L144.681 245.434L157.64 235.037L149.042 225.481L140.729 216.135C143.035 216.756 145.475 216.666 147.729 215.876Z" fill="#734774"/>
<mask id="path-13-inside-1_1877_349" fill="white">
<path fill-rule="evenodd" clip-rule="evenodd" d="M49.7719 59.1487C49.7719 52.111 43.4971 46.9451 38.0107 51.3528C36.9488 52.206 35.8837 53.1599 34.8148 54.2137L34.4869 54.5407L34.3024 54.6837L17.3946 71.7241L8.58201 80.5507C-2.85383 92.1358 -2.85383 102.474 8.54102 114.059L34.3434 140.008C39.9998 145.729 45.6358 148.651 51.1078 148.651C56.5797 148.651 62.3182 145.75 68.0976 139.967L94.0844 114.059C95.72 112.429 97.1225 110.801 98.291 109.18C102.255 103.681 97.0283 97.7719 90.2491 97.7719H61.7718C55.1444 97.7719 49.7719 92.3993 49.7719 85.7719V59.1487Z"/>
</mask>
<path fill-rule="evenodd" clip-rule="evenodd" d="M49.7719 59.1487C49.7719 52.111 43.4971 46.9451 38.0107 51.3528C36.9488 52.206 35.8837 53.1599 34.8148 54.2137L34.4869 54.5407L34.3024 54.6837L17.3946 71.7241L8.58201 80.5507C-2.85383 92.1358 -2.85383 102.474 8.54102 114.059L34.3434 140.008C39.9998 145.729 45.6358 148.651 51.1078 148.651C56.5797 148.651 62.3182 145.75 68.0976 139.967L94.0844 114.059C95.72 112.429 97.1225 110.801 98.291 109.18C102.255 103.681 97.0283 97.7719 90.2491 97.7719H61.7718C55.1444 97.7719 49.7719 92.3993 49.7719 85.7719V59.1487Z" fill="#F38989"/>
<path d="M34.8148 54.2137L26.3902 45.6682L26.3662 45.6918L26.3424 45.7156L34.8148 54.2137ZM34.4869 54.5407L41.8402 64.0237L42.4304 63.5661L42.9592 63.0388L34.4869 54.5407ZM34.3024 54.6837L26.9491 45.2006L26.3331 45.6783L25.7841 46.2316L34.3024 54.6837ZM17.3946 71.7241L25.8866 80.2026L25.8998 80.1894L25.9129 80.1762L17.3946 71.7241ZM8.58201 80.5507L0.0899431 72.0723L0.0658652 72.0964L0.0419246 72.1206L8.58201 80.5507ZM8.54102 114.059L-0.0141835 122.474L0.0087278 122.498L0.0317656 122.521L8.54102 114.059ZM34.3434 140.008L42.8767 131.571L42.8647 131.559L42.8526 131.547L34.3434 140.008ZM68.0976 139.967L59.6252 131.469L59.6177 131.477L59.6102 131.484L68.0976 139.967ZM94.0844 114.059L85.612 105.561L94.0844 114.059ZM38.0107 51.3528L30.495 41.9979L38.0107 51.3528ZM30.495 41.9979C29.0842 43.1314 27.717 44.3602 26.3902 45.6682L43.2394 62.7593C44.0504 61.9597 44.8133 61.2806 45.5265 60.7077L30.495 41.9979ZM26.3424 45.7156L26.0145 46.0425L42.9592 63.0388L43.2872 62.7119L26.3424 45.7156ZM27.1335 45.0576L26.9491 45.2006L41.6557 64.1667L41.8402 64.0237L27.1335 45.0576ZM25.7841 46.2316L8.87622 63.272L25.9129 80.1762L42.8208 63.1358L25.7841 46.2316ZM8.90251 63.2456L0.0899431 72.0723L17.0741 89.0292L25.8866 80.2026L8.90251 63.2456ZM0.0419246 72.1206C-6.74765 78.9988 -11.9907 87.3415 -12 97.2939C-12.0093 107.247 -6.7814 115.594 -0.0141835 122.474L17.0962 105.645C12.4686 100.94 11.9991 98.3254 12 97.3163C12.0009 96.3068 12.4758 93.6877 17.1221 88.9809L0.0419246 72.1206ZM0.0317656 122.521L25.8341 148.469L42.8526 131.547L17.0503 105.598L0.0317656 122.521ZM25.8101 148.445C32.6381 155.351 41.1622 160.651 51.1078 160.651V136.651C50.1093 136.651 47.3616 136.107 42.8767 131.571L25.8101 148.445ZM51.1078 160.651C60.9938 160.651 69.6071 155.432 76.585 148.451L59.6102 131.484C55.0292 136.067 52.1657 136.651 51.1078 136.651V160.651ZM76.5699 148.466L102.557 122.558L85.612 105.561L59.6252 131.469L76.5699 148.466ZM102.557 122.558C104.585 120.536 106.425 118.418 108.026 116.197L88.5564 102.164C87.8199 103.185 86.8551 104.322 85.612 105.561L102.557 122.558ZM90.2491 85.7719H61.7718V109.772H90.2491V85.7719ZM61.7718 85.7719H61.7719H37.7719C37.7719 99.0267 48.517 109.772 61.7718 109.772V85.7719ZM61.7719 85.7719V59.1487H37.7719V85.7719H61.7719ZM108.026 116.197C113.27 108.922 112.527 100.254 107.824 94.1156C103.634 88.646 96.9207 85.7719 90.2491 85.7719V109.772C90.2106 109.772 90.0864 109.766 89.8791 109.67C89.6942 109.584 89.2501 109.334 88.7733 108.712C88.2732 108.059 87.7088 106.931 87.6652 105.426C87.6196 103.853 88.1667 102.704 88.5564 102.164L108.026 116.197ZM45.5265 60.7077C45.0708 61.0738 43.9804 61.6897 42.3885 61.7196C40.8535 61.7485 39.6594 61.2163 38.9456 60.7033C38.2676 60.216 37.9862 59.7404 37.886 59.5316C37.7742 59.2985 37.7719 59.1653 37.7719 59.1487H61.7719C61.7719 52.2569 58.7213 45.3605 52.9518 41.2142C49.9835 39.0809 46.192 37.6439 41.9374 37.7239C37.626 37.8049 33.6939 39.4279 30.495 41.9979L45.5265 60.7077Z" fill="#734774" mask="url(#path-13-inside-1_1877_349)"/>
<mask id="path-15-inside-2_1877_349" fill="white">
<path fill-rule="evenodd" clip-rule="evenodd" d="M180.428 99.8907C173.39 99.8907 168.224 106.166 172.632 111.652C173.485 112.714 174.439 113.779 175.493 114.848L175.82 115.176L175.963 115.36L193.003 132.268L201.83 141.081C213.415 152.516 223.754 152.516 235.339 141.122L261.288 115.319C267.009 109.663 269.93 104.027 269.93 98.5548C269.93 93.0828 267.029 87.3444 261.247 81.565L235.339 55.5782C233.708 53.9426 232.081 52.5401 230.46 51.3716C224.96 47.4075 219.051 52.6343 219.051 59.4135L219.051 87.8907C219.051 94.5182 213.679 99.8907 207.051 99.8907L180.428 99.8907Z"/>
</mask>
<path fill-rule="evenodd" clip-rule="evenodd" d="M180.428 99.8907C173.39 99.8907 168.224 106.166 172.632 111.652C173.485 112.714 174.439 113.779 175.493 114.848L175.82 115.176L175.963 115.36L193.003 132.268L201.83 141.081C213.415 152.516 223.754 152.516 235.339 141.122L261.288 115.319C267.009 109.663 269.93 104.027 269.93 98.5548C269.93 93.0828 267.029 87.3444 261.247 81.565L235.339 55.5782C233.708 53.9426 232.081 52.5401 230.46 51.3716C224.96 47.4075 219.051 52.6343 219.051 59.4135L219.051 87.8907C219.051 94.5182 213.679 99.8907 207.051 99.8907L180.428 99.8907Z" fill="#F38989"/>
<path d="M175.493 114.848L166.947 123.272L166.971 123.296L166.995 123.32L175.493 114.848ZM175.82 115.176L185.303 107.822L184.845 107.232L184.318 106.703L175.82 115.176ZM175.963 115.36L166.48 122.714L166.958 123.33L167.511 123.879L175.963 115.36ZM193.003 132.268L201.482 123.776L201.469 123.763L201.455 123.75L193.003 132.268ZM201.83 141.081L193.352 149.573L193.376 149.597L193.4 149.621L201.83 141.081ZM235.339 141.122L243.754 149.677L243.777 149.654L243.8 149.631L235.339 141.122ZM261.288 115.319L252.851 106.786L252.838 106.798L252.826 106.81L261.288 115.319ZM261.247 81.565L252.748 90.0374L252.756 90.0449L252.764 90.0524L261.247 81.565ZM235.339 55.5782L226.841 64.0506L235.339 55.5782ZM172.632 111.652L163.277 119.168L172.632 111.652ZM163.277 119.168C164.411 120.578 165.639 121.946 166.947 123.272L184.039 106.423C183.239 105.612 182.56 104.849 181.987 104.136L163.277 119.168ZM166.995 123.32L167.322 123.648L184.318 106.703L183.991 106.375L166.995 123.32ZM166.337 122.529L166.48 122.714L185.446 108.007L185.303 107.822L166.337 122.529ZM167.511 123.879L184.551 140.786L201.455 123.75L184.415 106.842L167.511 123.879ZM184.525 140.76L193.352 149.573L210.309 132.589L201.482 123.776L184.525 140.76ZM193.4 149.621C200.278 156.41 208.621 161.653 218.573 161.663C228.526 161.672 236.873 156.444 243.754 149.677L226.924 132.566C222.219 137.194 219.605 137.664 218.596 137.663C217.586 137.662 214.967 137.187 210.26 132.54L193.4 149.621ZM243.8 149.631L269.749 123.828L252.826 106.81L226.877 132.612L243.8 149.631ZM269.725 123.852C276.63 117.025 281.93 108.5 281.93 98.5548L257.93 98.5548C257.93 99.5533 257.387 102.301 252.851 106.786L269.725 123.852ZM281.93 98.5548C281.93 88.6688 276.711 80.0555 269.73 73.0776L252.764 90.0524C257.347 94.6334 257.93 97.4969 257.93 98.5548L281.93 98.5548ZM269.745 73.0927L243.837 47.1058L226.841 64.0506L252.748 90.0374L269.745 73.0927ZM243.837 47.1058C241.815 45.0777 239.697 43.2374 237.477 41.637L223.443 61.1062C224.465 61.8427 225.601 62.8075 226.841 64.0506L243.837 47.1058ZM207.051 59.4135L207.051 87.8907L231.051 87.8907L231.051 59.4135L207.051 59.4135ZM207.051 87.8907L207.051 87.8907L207.051 111.891C220.306 111.891 231.051 101.146 231.051 87.8907L207.051 87.8907ZM207.051 87.8907L180.428 87.8907L180.428 111.891L207.051 111.891L207.051 87.8907ZM237.477 41.637C230.201 36.3928 221.533 37.1355 215.395 41.8384C209.925 46.0291 207.051 52.7419 207.051 59.4135L231.051 59.4135C231.051 59.4519 231.045 59.5762 230.949 59.7835C230.863 59.9684 230.614 60.4125 229.992 60.8893C229.339 61.3894 228.211 61.9538 226.705 61.9974C225.132 62.043 223.984 61.4959 223.443 61.1062L237.477 41.637ZM181.987 104.136C182.353 104.592 182.969 105.682 182.999 107.274C183.028 108.809 182.496 110.003 181.983 110.717C181.495 111.395 181.02 111.676 180.811 111.777C180.578 111.888 180.445 111.891 180.428 111.891L180.428 87.8907C173.536 87.8907 166.64 90.9413 162.493 96.7108C160.36 99.6791 158.923 103.471 159.003 107.725C159.084 112.037 160.707 115.969 163.277 119.168L181.987 104.136Z" fill="#734774" mask="url(#path-15-inside-2_1877_349)"/>
<circle cx="102.5" cy="149.5" r="18.5" fill="#734774"/>
<circle cx="98" cy="145" r="5" fill="white"/>
<circle cx="159" cy="145" r="5" fill="white"/>
<circle cx="165.5" cy="149.5" r="18.5" fill="#734774"/>
<circle cx="160" cy="145" r="5" fill="white"/>
</g>
<defs>
<clipPath id="clip0_1877_349">
<rect width="270" height="291" fill="white"/>
</clipPath>
</defs>
</svg>
